<svg width="22" height="22" viewBox="0 0 22 22" fill="none" xmlns="http://www.w3.org/2000/svg">
<path d="M0.445076 11.3586L10.1951 0.525279C10.6057 0.0681119 11.3943 0.0681119 11.8049 0.525279L21.5549 11.3586C21.842 11.676 21.9135 12.1332 21.7391 12.5243C21.5657 12.9154 21.1779 13.1667 20.75 13.1667H18.5833V20.75C18.5833 21.348 18.0991 21.8334 17.5 21.8334H14.25C13.6509 21.8334 13.1667 21.348 13.1667 20.75V16.4167H8.83332V20.75C8.83332 21.348 8.34907 21.8334 7.74999 21.8334H4.49999C3.90091 21.8334 3.41666 21.348 3.41666 20.75V13.1667H1.24999C0.822075 13.1667 0.434242 12.9154 0.260908 12.5243C0.0864925 12.1332 0.157993 11.6771 0.445076 11.3586Z" fill="#F8F8F8"/>
</svg>
