<svg xmlns="http://www.w3.org/2000/svg" width="92" height="50" fill="none" viewBox="0 0 92 50"><path fill="#383F59" d="M13.368 47C12.92 47 12.56 46.816 12.288 46.448L6.744 39.152L8.928 36.92L14.664 44.504C14.888 44.808 15 45.136 15 45.488C15 45.936 14.832 46.304 14.496 46.592C14.16 46.864 13.784 47 13.368 47ZM13.656 30.08C14.04 30.08 14.352 30.24 14.592 30.56C14.848 30.864 14.976 31.176 14.976 31.496C14.976 31.832 14.832 32.144 14.544 32.432L4.488 42.056L4.368 38.624L12.48 30.632C12.848 30.264 13.24 30.08 13.656 30.08ZM3.288 47C2.84 47 2.48 46.864 2.208 46.592C1.936 46.304 1.8 45.952 1.8 45.536V31.664C1.8 31.248 1.944 30.904 2.232 30.632C2.52 30.344 2.888 30.2 3.336 30.2C3.784 30.2 4.136 30.344 4.392 30.632C4.664 30.904 4.8 31.248 4.8 31.664V45.536C4.8 45.952 4.664 46.304 4.392 46.592C4.12 46.864 3.752 47 3.288 47ZM22.6989 47.24C21.3389 47.24 20.1549 46.96 19.1469 46.4C18.1549 45.824 17.3869 45.048 16.8429 44.072C16.3149 43.096 16.0509 41.992 16.0509 40.76C16.0509 39.32 16.3389 38.096 16.9149 37.088C17.5069 36.064 18.2749 35.28 19.2189 34.736C20.1629 34.192 21.1629 33.92 22.2189 33.92C23.0349 33.92 23.8029 34.088 24.5229 34.424C25.2589 34.76 25.9069 35.224 26.4669 35.816C27.0269 36.392 27.4669 37.064 27.7869 37.832C28.1229 38.6 28.2909 39.416 28.2909 40.28C28.2749 40.664 28.1229 40.976 27.8349 41.216C27.5469 41.456 27.2109 41.576 26.8269 41.576H17.6589L16.9389 39.176H25.7469L25.2189 39.656V39.008C25.1869 38.544 25.0189 38.128 24.7149 37.76C24.4269 37.392 24.0589 37.104 23.6109 36.896C23.1789 36.672 22.7149 36.56 22.2189 36.56C21.7389 36.56 21.2909 36.624 20.8749 36.752C20.4589 36.88 20.0989 37.096 19.7949 37.4C19.4909 37.704 19.2509 38.112 19.0749 38.624C18.8989 39.136 18.8109 39.784 18.8109 40.568C18.8109 41.432 18.9869 42.168 19.3389 42.776C19.7069 43.368 20.1709 43.824 20.7309 44.144C21.3069 44.448 21.9149 44.6 22.5549 44.6C23.1469 44.6 23.6189 44.552 23.9709 44.456C24.3229 44.36 24.6029 44.248 24.8109 44.12C25.0349 43.976 25.2349 43.856 25.4109 43.76C25.6989 43.616 25.9709 43.544 26.2269 43.544C26.5789 43.544 26.8669 43.664 27.0909 43.904C27.3309 44.144 27.4509 44.424 27.4509 44.744C27.4509 45.176 27.2269 45.568 26.7789 45.92C26.3629 46.272 25.7789 46.584 25.0269 46.856C24.2749 47.112 23.4989 47.24 22.6989 47.24ZM33.8128 45.536C33.8128 45.952 33.6688 46.304 33.3808 46.592C33.1088 46.864 32.7648 47 32.3488 47C31.9488 47 31.6128 46.864 31.3408 46.592C31.0688 46.304 30.9328 45.952 30.9328 45.536V30.704C30.9328 30.288 31.0688 29.944 31.3408 29.672C31.6288 29.384 31.9808 29.24 32.3968 29.24C32.8128 29.24 33.1488 29.384 33.4048 29.672C33.6768 29.944 33.8128 30.288 33.8128 30.704V45.536ZM47.5536 33.92C47.9696 33.92 48.3136 34.056 48.5856 34.328C48.8576 34.6 48.9936 34.952 48.9936 35.384V45.536C48.9936 45.952 48.8576 46.304 48.5856 46.592C48.3136 46.864 47.9696 47 47.5536 47C47.1376 47 46.7936 46.864 46.5216 46.592C46.2496 46.304 46.1136 45.952 46.1136 45.536V44.36L46.6416 44.576C46.6416 44.784 46.5296 45.04 46.3056 45.344C46.0816 45.632 45.7776 45.92 45.3936 46.208C45.0096 46.496 44.5536 46.744 44.0256 46.952C43.5136 47.144 42.9536 47.24 42.3456 47.24C41.2416 47.24 40.2416 46.96 39.3456 46.4C38.4496 45.824 37.7376 45.04 37.2096 44.048C36.6976 43.04 36.4416 41.888 36.4416 40.592C36.4416 39.28 36.6976 38.128 37.2096 37.136C37.7376 36.128 38.4416 35.344 39.3216 34.784C40.2016 34.208 41.1776 33.92 42.2496 33.92C42.9376 33.92 43.5696 34.024 44.1456 34.232C44.7216 34.44 45.2176 34.704 45.6336 35.024C46.0656 35.344 46.3936 35.672 46.6176 36.008C46.8576 36.328 46.9776 36.6 46.9776 36.824L46.1136 37.136V35.384C46.1136 34.968 46.2496 34.624 46.5216 34.352C46.7936 34.064 47.1376 33.92 47.5536 33.92ZM42.7056 44.6C43.4096 44.6 44.0256 44.424 44.5536 44.072C45.0816 43.72 45.4896 43.24 45.7776 42.632C46.0816 42.024 46.2336 41.344 46.2336 40.592C46.2336 39.824 46.0816 39.136 45.7776 38.528C45.4896 37.92 45.0816 37.44 44.5536 37.088C44.0256 36.736 43.4096 36.56 42.7056 36.56C42.0176 36.56 41.4096 36.736 40.8816 37.088C40.3536 37.44 39.9376 37.92 39.6336 38.528C39.3456 39.136 39.2016 39.824 39.2016 40.592C39.2016 41.344 39.3456 42.024 39.6336 42.632C39.9376 43.24 40.3536 43.72 40.8816 44.072C41.4096 44.424 42.0176 44.6 42.7056 44.6ZM51.3707 45.008C51.2107 44.784 51.1387 44.496 51.1547 44.144C51.1707 43.792 51.3787 43.488 51.7787 43.232C52.0347 43.072 52.3067 43.008 52.5947 43.04C52.8827 43.056 53.1627 43.2 53.4347 43.472C53.8987 43.936 54.3867 44.296 54.8987 44.552C55.4107 44.808 56.0507 44.936 56.8187 44.936C57.0587 44.92 57.3227 44.888 57.6107 44.84C57.8987 44.776 58.1467 44.648 58.3547 44.456C58.5787 44.248 58.6907 43.936 58.6907 43.52C58.6907 43.168 58.5707 42.888 58.3307 42.68C58.0907 42.472 57.7707 42.296 57.3707 42.152C56.9867 42.008 56.5547 41.872 56.0747 41.744C55.5787 41.6 55.0667 41.44 54.5387 41.264C54.0267 41.088 53.5547 40.864 53.1227 40.592C52.6907 40.304 52.3387 39.928 52.0667 39.464C51.7947 39 51.6587 38.416 51.6587 37.712C51.6587 36.912 51.8827 36.232 52.3307 35.672C52.7787 35.112 53.3547 34.68 54.0587 34.376C54.7787 34.072 55.5307 33.92 56.3147 33.92C56.8107 33.92 57.3307 33.984 57.8747 34.112C58.4187 34.224 58.9387 34.416 59.4347 34.688C59.9307 34.944 60.3467 35.288 60.6827 35.72C60.8587 35.96 60.9627 36.248 60.9947 36.584C61.0267 36.92 60.8747 37.224 60.5387 37.496C60.2987 37.688 60.0187 37.776 59.6987 37.76C59.3787 37.728 59.1147 37.616 58.9067 37.424C58.6347 37.072 58.2667 36.792 57.8027 36.584C57.3547 36.376 56.8347 36.272 56.2427 36.272C56.0027 36.272 55.7387 36.304 55.4507 36.368C55.1787 36.416 54.9387 36.536 54.7307 36.728C54.5227 36.904 54.4187 37.192 54.4187 37.592C54.4187 37.96 54.5387 38.256 54.7787 38.48C55.0187 38.688 55.3387 38.864 55.7387 39.008C56.1547 39.136 56.5947 39.264 57.0587 39.392C57.5387 39.52 58.0267 39.672 58.5227 39.848C59.0187 40.024 59.4747 40.256 59.8907 40.544C60.3067 40.832 60.6427 41.208 60.8987 41.672C61.1547 42.12 61.2827 42.696 61.2827 43.4C61.2827 44.216 61.0427 44.912 60.5627 45.488C60.0827 46.064 59.4827 46.504 58.7627 46.808C58.0427 47.096 57.3067 47.24 56.5547 47.24C55.6107 47.24 54.6667 47.08 53.7227 46.76C52.7787 46.424 51.9947 45.84 51.3707 45.008ZM65.3728 47C64.9568 47 64.6128 46.864 64.3408 46.592C64.0688 46.304 63.9328 45.952 63.9328 45.536V30.704C63.9328 30.288 64.0688 29.944 64.3408 29.672C64.6128 29.384 64.9568 29.24 65.3728 29.24C65.7888 29.24 66.1328 29.384 66.4048 29.672C66.6768 29.944 66.8128 30.288 66.8128 30.704V45.536C66.8128 45.952 66.6768 46.304 66.4048 46.592C66.1328 46.864 65.7888 47 65.3728 47ZM73.0048 34.16C73.3728 34.16 73.6928 34.312 73.9648 34.616C74.2368 34.92 74.3728 35.216 74.3728 35.504C74.3728 35.888 74.1808 36.248 73.7968 36.584L66.5728 43.232L66.4528 39.92L71.9488 34.616C72.2528 34.312 72.6048 34.16 73.0048 34.16ZM73.3648 46.976C72.9488 46.976 72.5968 46.816 72.3088 46.496L67.8688 41.792L70.0528 39.776L74.3728 44.48C74.6768 44.8 74.8288 45.16 74.8288 45.56C74.8288 45.976 74.6608 46.32 74.3248 46.592C74.0048 46.848 73.6848 46.976 73.3648 46.976ZM86.7677 34.16C87.1837 34.16 87.5277 34.304 87.7997 34.592C88.0717 34.864 88.2077 35.208 88.2077 35.624V41.72C88.2077 43.416 87.7357 44.76 86.7917 45.752C85.8477 46.744 84.4877 47.24 82.7117 47.24C80.9357 47.24 79.5757 46.744 78.6317 45.752C77.7037 44.76 77.2397 43.416 77.2397 41.72V35.624C77.2397 35.208 77.3757 34.864 77.6477 34.592C77.9197 34.304 78.2637 34.16 78.6797 34.16C79.0957 34.16 79.4397 34.304 79.7117 34.592C79.9837 34.864 80.1197 35.208 80.1197 35.624V41.72C80.1197 42.696 80.3357 43.424 80.7677 43.904C81.1997 44.368 81.8477 44.6 82.7117 44.6C83.5917 44.6 84.2477 44.368 84.6797 43.904C85.1117 43.424 85.3277 42.696 85.3277 41.72V35.624C85.3277 35.208 85.4637 34.864 85.7357 34.592C86.0077 34.304 86.3517 34.16 86.7677 34.16Z"/><path fill="#383F59" d="M50.3391 8.74472C48.1209 7.72095 44.1538 8.31815 42.4475 8.74472C41.5943 11.0909 40.5706 15.2287 43.3006 13.0105C46.0307 10.7923 48.8461 12.0862 49.9125 13.0105C50.979 12.0151 52.5573 9.7685 50.3391 8.74472Z"/><circle cx="31.57" cy="11.731" r="10.231" stroke="#383F59" stroke-width="3"/><circle cx="31.57" cy="11.731" r="3.626" fill="#383F59"/><circle cx="61.43" cy="11.731" r="3.626" fill="#383F59"/><circle cx="61.43" cy="11.731" r="10.231" stroke="#383F59" stroke-width="3"/><rect width="5.545" height="3.839" x="16" y="9.811" fill="#383F59" rx="1.92"/><rect width="5.545" height="3.839" x="71.454" y="10.238" fill="#383F59" rx="1.92"/></svg>